{"glyphs":{":":{"x_min":0,"x_max":273,"ha":273,"o":"m 74 421 l 74 556 l 199 556 l 199 421 z m 74 0 l 74 135 l 199 135 l 199 0 z"},"$":{"x_min":0,"x_max":500,"ha":500,"o":"m 222 475 l 222 649 q 193 646 178 626 q 163 605 163 569 q 163 542 177 518 q 192 495 222 475 z m 218 -98 l 218 -1 q 127 4 82 59 q 36 114 36 217 l 36 236 l 155 236 q 155 232 154 224 q 154 216 154 213 q 154 161 170 133 q 187 105 222 99 l 222 321 q 126 374 85 427 q 44 481 44 554 q 44 639 90 689 q 136 739 218 743 l 218 810 l 273 810 l 273 742 q 357 741 401 695 q 445 649 445 562 l 445 548 l 329 548 l 329 558 q 329 600 313 623 q 297 646 269 648 l 269 448 q 380 391 421 338 q 462 286 462 208 q 462 112 413 58 q 365 4 273 -1 l 273 -98 z m 269 99 q 302 105 319 128 q 336 150 336 188 q 336 225 321 249 q 307 273 269 297 z"},"?":{"x_min":0,"x_max":491,"ha":491,"o":"m 175 550 l 53 550 l 53 569 q 53 666 103 718 q 152 770 245 770 q 335 770 386 719 q 438 668 438 579 q 438 545 430 516 q 423 487 408 463 q 390 434 353 391 q 316 348 304 331 q 287 308 278 281 q 270 254 270 220 q 270 217 271 211 q 271 205 271 202 l 153 202 q 152 208 152 216 q 152 223 152 237 q 152 290 165 328 q 178 367 210 408 q 218 419 235 438 q 301 514 301 585 q 301 624 285 645 q 270 665 240 665 q 207 665 191 641 q 175 617 175 568 z m 276 130 l 276 0 l 151 0 l 151 130 z"},"<":{"x_min":0,"x_max":833,"ha":833,"o":"m 704 583 l 704 476 l 268 298 l 704 120 l 704 13 l 129 250 l 129 347 z"},"'":{"x_min":0,"x_max":172,"ha":172,"o":"m 39 702 l 133 702 l 133 429 l 39 429 z"},"=":{"x_min":0,"x_max":833,"ha":833,"o":"m 124 242 l 709 242 l 709 145 l 124 145 z m 124 452 l 709 452 l 709 355 l 124 355 z"},"a":{"x_min":0,"x_max":485,"ha":485,"o":"m 306 296 q 232 259 206 229 q 180 200 180 160 q 180 123 194 105 q 208 87 238 87 q 272 87 289 117 q 306 146 306 206 z m 324 0 q 320 6 317 19 q 313 32 310 55 q 290 21 257 3 q 225 -15 181 -15 q 117 -15 81 28 q 45 72 45 149 q 45 219 76 260 q 108 301 201 343 q 210 347 228 354 q 304 387 304 431 q 304 458 289 472 q 274 487 246 487 q 210 487 194 468 q 177 449 177 408 l 177 397 l 50 397 q 50 492 96 536 q 143 579 246 579 q 349 579 391 539 q 432 500 432 400 l 432 81 q 432 58 437 38 q 441 19 451 0 z"},"L":{"x_min":0,"x_max":488,"ha":488,"o":"m 64 0 l 64 752 l 204 752 l 204 128 l 457 128 l 457 0 z"},"3":{"x_min":0,"x_max":500,"ha":500,"o":"m 41 253 l 172 253 l 172 244 q 172 160 189 126 q 206 93 248 93 q 290 93 306 122 q 323 152 323 228 q 323 305 302 329 q 282 353 222 353 q 209 353 200 353 q 192 353 183 352 l 183 450 l 193 450 q 260 450 285 473 q 310 495 310 556 q 310 612 295 634 q 280 656 244 656 q 209 656 194 632 q 178 607 178 552 l 178 534 l 48 534 q 47 539 47 545 q 47 550 47 562 q 47 659 98 708 q 149 757 250 757 q 343 757 394 706 q 445 656 445 563 q 445 500 423 460 q 400 419 358 406 q 411 393 436 349 q 462 305 462 228 q 462 106 408 46 q 354 -14 244 -14 q 140 -14 90 44 q 40 102 40 223 q 40 228 41 238 q 41 248 41 253 z"},";":{"x_min":0,"x_max":273,"ha":273,"o":"m 74 -147 l 74 -96 q 105 -93 123 -69 q 141 -46 141 -8 l 141 0 l 74 0 l 74 135 l 199 135 l 199 -9 q 199 -63 163 -104 q 126 -144 74 -147 z m 74 421 l 74 556 l 199 556 l 199 421 z"},"J":{"x_min":0,"x_max":441,"ha":441,"o":"m 12 238 l 140 238 l 140 149 q 140 119 152 104 q 164 90 189 90 q 216 90 226 107 q 236 124 236 185 l 236 219 l 236 752 l 373 752 l 373 223 q 373 145 370 116 q 367 88 359 71 q 338 26 296 4 q 254 -18 188 -18 q 101 -18 56 27 q 12 72 12 161 z"},"V":{"x_min":0,"x_max":547,"ha":547,"o":"m 182 0 l 13 752 l 163 752 l 275 152 l 376 752 l 524 752 l 366 0 z"},"\"":{"x_min":0,"x_max":331,"ha":331,"o":"m 198 702 l 292 702 l 292 429 l 198 429 z m 39 702 l 133 702 l 133 429 l 39 429 z"},"7":{"x_min":0,"x_max":500,"ha":500,"o":"m 133 0 q 144 140 192 296 q 240 452 323 619 l 41 619 l 41 743 l 457 743 l 457 635 q 380 493 335 333 q 290 173 277 0 z"},"S":{"x_min":0,"x_max":548,"ha":548,"o":"m 50 264 l 190 264 l 190 216 q 190 146 207 121 q 225 96 267 96 q 312 96 335 119 q 358 141 358 185 q 358 219 342 243 q 326 267 272 305 l 200 356 q 107 420 82 462 q 57 504 57 568 q 57 663 113 716 q 169 770 268 770 q 373 770 428 713 q 484 656 484 549 q 484 538 484 532 q 483 526 483 522 l 350 522 l 350 542 q 350 603 330 629 q 310 656 264 656 q 230 656 211 636 q 192 616 192 581 q 192 534 278 476 l 280 475 l 357 423 q 439 368 469 320 q 498 271 498 196 q 498 93 439 38 q 381 -18 272 -18 q 159 -18 103 41 q 48 99 48 219 q 48 232 50 261 z"},"}":{"x_min":0,"x_max":500,"ha":500,"o":"m 70 721 l 103 721 q 157 721 189 715 q 222 709 244 697 q 272 681 283 652 q 295 623 295 555 l 295 432 q 295 365 320 337 q 345 309 404 309 q 407 309 414 310 q 420 310 424 310 l 424 208 l 406 208 q 345 208 320 181 q 295 153 295 86 l 295 -37 q 295 -107 283 -135 q 272 -164 244 -179 q 221 -191 188 -197 q 156 -203 107 -203 q 101 -203 89 -203 q 77 -202 70 -202 l 70 -100 q 74 -100 82 -101 q 90 -101 93 -101 q 142 -101 159 -82 q 177 -63 177 -4 l 177 113 q 177 186 199 216 q 221 246 278 259 q 221 272 199 302 q 177 333 177 405 l 177 523 q 177 583 159 601 q 142 620 93 620 q 90 620 82 620 q 74 619 70 619 z"},"Z":{"x_min":0,"x_max":484,"ha":484,"o":"m 30 0 l 30 127 l 294 635 l 43 635 l 43 752 l 443 752 l 443 636 l 182 127 l 454 127 l 454 0 z"},"x":{"x_min":0,"x_max":437,"ha":437,"o":"m 7 0 l 156 289 l 13 565 l 162 565 l 223 424 l 284 565 l 427 565 l 287 289 l 430 0 l 285 0 l 220 151 l 155 0 z"},")":{"x_min":0,"x_max":329,"ha":329,"o":"m 114 -190 l 32 -190 q 83 -101 107 15 q 132 132 132 286 q 132 444 108 566 q 83 689 36 770 l 117 770 q 188 672 226 554 q 263 436 263 311 q 263 163 227 42 q 191 -80 114 -190 z"},"&":{"x_min":0,"x_max":658,"ha":658,"o":"m 304 515 q 332 537 345 559 q 358 582 358 606 q 358 633 346 647 q 333 661 310 661 q 286 661 273 648 q 260 634 260 609 q 260 603 263 594 q 266 586 271 576 z m 382 139 l 259 343 q 225 320 208 288 q 190 257 190 220 q 190 169 219 134 q 249 98 290 98 q 314 98 335 107 q 356 117 382 139 z m 460 0 l 435 48 q 404 17 364 2 q 325 -13 273 -13 q 174 -13 116 47 q 59 108 59 212 q 59 279 91 331 q 123 383 202 443 q 170 493 156 530 q 143 566 143 600 q 143 668 187 710 q 231 752 304 752 q 383 752 425 715 q 468 678 468 609 q 468 551 441 504 q 414 456 361 421 l 451 266 q 460 291 465 320 q 469 349 469 385 l 469 397 l 584 397 q 583 319 567 258 q 551 196 520 151 l 609 0 z"},"_":{"x_min":0,"x_max":500,"ha":500,"o":"m 0 -136 l 500 -136 l 500 -236 l 0 -236 z"},"v":{"x_min":0,"x_max":444,"ha":444,"o":"m 142 0 l 11 565 l 150 565 l 225 133 l 297 565 l 432 565 l 302 0 z"},"O":{"x_min":0,"x_max":587,"ha":587,"o":"m 192 376 q 192 190 214 142 q 235 94 294 94 q 352 94 373 141 q 394 188 394 376 q 394 563 373 611 q 351 659 293 659 q 235 659 213 611 q 192 563 192 376 z m 49 376 q 49 496 60 567 q 71 639 95 675 q 128 726 173 748 q 219 770 293 770 q 367 770 413 748 q 458 726 491 675 q 515 638 526 566 q 537 495 537 376 q 537 257 526 186 q 515 114 491 77 q 458 26 413 4 q 367 -18 293 -18 q 219 -18 173 4 q 128 26 95 77 q 71 113 60 185 q 49 256 49 376 z"},"(":{"x_min":0,"x_max":329,"ha":329,"o":"m 218 -190 q 141 -80 105 42 q 69 163 69 311 q 69 436 106 554 q 144 672 215 770 l 296 770 q 249 689 224 566 q 200 444 200 286 q 200 132 225 15 q 249 -101 300 -190 z"},"C":{"x_min":0,"x_max":548,"ha":548,"o":"m 363 268 l 499 268 q 499 263 500 254 q 500 244 500 239 q 500 108 445 45 q 390 -18 277 -18 q 223 -18 185 -4 q 146 10 118 39 q 80 78 64 146 q 49 215 49 385 q 49 501 58 570 q 67 638 87 672 q 117 724 162 747 q 207 770 277 770 q 391 770 443 710 q 495 651 496 519 l 360 519 l 360 537 q 360 598 340 628 q 320 658 280 658 q 229 658 211 617 q 193 575 193 387 q 193 184 211 140 q 229 96 279 96 q 326 96 344 131 q 363 165 363 258 z"},"W":{"x_min":0,"x_max":819,"ha":819,"o":"m 164 0 l 18 752 l 163 752 l 255 182 l 353 752 l 469 752 l 577 171 l 657 752 l 801 752 l 664 0 l 498 0 l 411 475 l 331 0 z"},"A":{"x_min":0,"x_max":547,"ha":547,"o":"m 210 302 l 329 302 l 269 617 z m 9 0 l 178 752 l 366 752 l 537 0 l 386 0 l 349 189 l 188 189 l 152 0 z"},"f":{"x_min":0,"x_max":275,"ha":275,"o":"m 69 0 l 69 468 l 18 468 l 18 565 l 69 565 l 69 621 q 69 694 97 724 q 125 755 190 755 q 203 755 219 754 q 234 753 253 752 l 253 654 q 250 654 246 654 q 242 655 240 655 q 219 655 209 646 q 200 637 200 617 l 200 565 l 253 565 l 253 468 l 200 468 l 200 0 z"},"Q":{"x_min":0,"x_max":587,"ha":587,"o":"m 326 99 l 285 141 l 355 212 l 385 181 q 390 218 393 259 q 395 301 395 349 q 395 559 374 609 q 352 659 293 659 q 235 659 213 611 q 192 563 192 376 q 192 193 212 144 q 232 94 287 94 q 293 94 302 95 q 311 96 326 99 z m 418 7 q 393 -6 362 -12 q 332 -18 293 -18 q 219 -18 173 4 q 128 26 95 77 q 71 114 60 186 q 49 257 49 376 q 49 495 60 566 q 71 638 95 675 q 128 726 173 748 q 219 770 293 770 q 367 770 413 748 q 458 726 491 675 q 515 638 526 566 q 537 495 537 376 q 537 252 526 179 q 515 107 491 77 l 575 -7 l 504 -79 z"},"w":{"x_min":0,"x_max":655,"ha":655,"o":"m 134 0 l 13 565 l 150 565 l 210 147 l 274 565 l 381 565 l 457 141 l 511 565 l 641 565 l 532 0 l 392 0 l 328 336 l 277 0 z"},"-":{"x_min":0,"x_max":328,"ha":328,"o":"m 45 224 l 45 341 l 283 341 l 283 224 z"},"E":{"x_min":0,"x_max":495,"ha":495,"o":"m 64 0 l 64 752 l 450 752 l 450 627 l 203 627 l 203 453 l 433 453 l 433 334 l 203 334 l 203 127 l 456 127 l 456 0 z"},"s":{"x_min":0,"x_max":440,"ha":440,"o":"m 37 188 l 155 188 l 155 172 q 155 123 170 103 q 185 82 219 82 q 247 82 262 97 q 278 111 278 137 q 278 169 215 211 q 199 222 190 228 l 184 232 q 40 331 40 426 q 40 501 87 541 q 133 580 222 580 q 308 580 351 536 q 394 493 394 404 l 394 392 l 279 392 l 279 404 q 279 445 263 464 q 248 483 214 483 q 189 483 175 469 q 160 456 160 434 q 160 414 173 397 q 186 380 231 350 q 241 343 261 330 q 403 236 403 142 q 403 67 355 26 q 307 -15 218 -15 q 125 -15 80 29 q 36 73 36 166 q 36 169 37 177 q 37 184 37 188 z"},">":{"x_min":0,"x_max":833,"ha":833,"o":"m 129 583 l 704 347 l 704 250 l 129 13 l 129 120 l 566 298 l 129 476 z"},"l":{"x_min":0,"x_max":242,"ha":242,"o":"m 56 0 l 56 752 l 186 752 l 186 0 z"},"8":{"x_min":0,"x_max":500,"ha":500,"o":"m 189 556 q 189 500 203 478 q 217 456 250 456 q 283 456 298 479 q 312 502 312 556 q 312 611 297 634 q 283 656 248 656 q 216 656 203 633 q 189 610 189 556 z m 250 357 q 211 357 197 328 q 182 300 182 214 q 182 145 197 120 q 212 94 250 94 q 289 94 304 121 q 319 148 319 225 q 319 299 303 328 q 288 357 250 357 z m 155 407 q 108 421 84 462 q 60 503 60 570 q 60 661 109 708 q 158 756 251 756 q 344 756 393 707 q 442 659 442 566 q 442 501 417 462 q 393 423 343 407 q 402 396 429 351 q 456 307 456 220 q 456 100 406 43 q 356 -13 249 -13 q 144 -13 94 41 q 45 95 45 210 q 45 300 71 346 q 98 393 155 407 z"},"\\":{"x_min":0,"x_max":307,"ha":307,"o":"m 252 -93 l -30 770 l 44 770 l 326 -93 z"},"e":{"x_min":0,"x_max":476,"ha":476,"o":"m 175 354 l 302 354 l 302 378 q 302 436 288 458 q 273 480 238 480 q 203 480 188 457 q 174 435 174 378 q 174 378 174 370 q 175 362 175 354 z m 306 194 l 429 194 q 429 190 430 183 q 430 175 430 172 q 430 75 384 30 q 338 -15 238 -15 q 185 -15 149 -2 q 114 11 91 39 q 63 72 52 122 q 41 171 41 301 q 41 404 51 448 q 61 493 84 521 q 108 550 148 565 q 187 580 241 580 q 293 580 331 564 q 369 548 394 516 q 415 488 424 445 q 433 402 433 307 l 433 264 l 176 264 q 175 258 175 251 q 175 244 175 228 q 175 147 190 115 q 205 83 240 83 q 275 83 291 109 q 306 135 306 194 z"},"b":{"x_min":0,"x_max":486,"ha":486,"o":"m 252 470 q 213 470 198 433 q 184 396 184 259 q 184 153 198 123 q 213 93 252 93 q 287 93 299 126 q 312 159 312 281 q 312 406 299 438 q 287 470 252 470 z m 57 0 l 57 752 l 188 752 l 188 517 q 205 549 232 564 q 259 580 299 580 q 380 580 412 515 q 445 451 445 280 q 445 115 411 50 q 378 -15 296 -15 q 255 -15 226 4 q 197 22 181 59 l 181 0 z"},"%":{"x_min":0,"x_max":771,"ha":771,"o":"m 515 174 q 515 107 527 84 q 539 61 571 61 q 604 61 616 83 q 628 105 628 173 q 628 236 615 260 q 602 284 569 284 q 539 284 527 260 q 515 237 515 174 z m 416 176 q 416 274 452 317 q 488 360 569 360 q 653 360 690 317 q 727 275 727 177 q 727 77 689 31 q 651 -14 569 -14 q 487 -14 451 30 q 416 74 416 176 z m 142 571 q 142 504 154 482 q 166 459 198 459 q 230 459 243 481 q 255 503 255 571 q 255 633 242 657 q 229 681 196 681 q 166 681 154 657 q 142 634 142 571 z m 44 574 q 44 672 80 714 q 115 757 197 757 q 281 757 318 715 q 354 673 354 575 q 354 475 316 429 q 279 383 197 383 q 115 383 80 427 q 44 471 44 574 z m 176 -14 l 520 757 l 593 757 l 248 -14 z"},"m":{"x_min":0,"x_max":751,"ha":751,"o":"m 58 0 l 58 565 l 179 565 l 179 500 q 202 544 232 562 q 263 580 316 580 q 357 580 388 561 q 419 542 432 509 q 458 547 488 563 q 519 580 562 580 q 629 580 663 543 q 697 506 697 434 l 697 0 l 569 0 l 569 361 q 569 428 555 447 q 542 467 505 467 q 471 467 456 445 q 442 422 442 364 l 442 0 l 313 0 l 313 367 q 313 425 300 446 q 286 467 253 467 q 218 467 202 444 q 187 422 187 369 l 187 0 z"},"#":{"x_min":0,"x_max":769,"ha":769,"o":"m 346 414 l 303 295 l 426 295 l 468 414 z m 346 715 l 454 715 l 383 512 l 501 512 l 573 715 l 681 715 l 609 512 l 747 512 l 711 414 l 574 414 l 533 296 l 675 296 l 640 198 l 498 198 l 426 -5 l 318 -5 l 390 198 l 271 198 l 198 -5 l 91 -5 l 162 198 l 22 198 l 59 296 l 197 296 l 239 414 l 93 414 l 129 512 l 274 512 z"},",":{"x_min":0,"x_max":250,"ha":250,"o":"m 62 -147 l 62 -96 q 93 -93 112 -69 q 130 -45 130 -8 l 130 0 l 62 0 l 62 135 l 188 135 l 188 -1 q 188 -63 154 -102 q 120 -142 62 -147 z"},"n":{"x_min":0,"x_max":485,"ha":485,"o":"m 57 0 l 57 565 l 185 565 l 185 508 q 206 543 235 562 q 265 580 303 580 q 365 580 397 545 q 430 510 430 444 l 430 0 l 304 0 l 304 379 q 304 429 292 449 q 279 469 249 469 q 216 469 202 444 q 188 419 188 360 l 188 0 z"},"h":{"x_min":0,"x_max":485,"ha":485,"o":"m 57 0 l 57 752 l 187 752 l 187 511 q 204 544 234 562 q 265 580 303 580 q 365 580 397 545 q 430 510 430 444 l 430 0 l 304 0 l 304 379 q 304 432 293 450 q 281 468 253 468 q 217 468 202 444 q 187 420 187 360 l 187 0 z"},"z":{"x_min":0,"x_max":383,"ha":383,"o":"m 21 0 l 21 104 l 212 455 l 23 455 l 23 565 l 359 565 l 359 470 l 162 111 l 361 111 l 361 0 z"},"B":{"x_min":0,"x_max":545,"ha":545,"o":"m 200 107 l 258 107 q 312 107 334 134 q 356 160 356 226 q 356 294 332 320 q 308 346 242 346 l 200 346 z m 200 447 l 247 447 q 300 447 320 470 q 340 493 340 554 q 340 609 320 630 q 299 650 243 650 l 200 650 z m 64 0 l 64 752 l 289 752 q 386 752 433 707 q 480 662 480 569 q 480 494 457 453 q 434 412 387 404 q 440 396 469 351 q 499 306 499 232 q 499 112 449 56 q 399 0 293 0 z"},"K":{"x_min":0,"x_max":546,"ha":546,"o":"m 64 0 l 64 752 l 201 752 l 201 438 l 372 752 l 528 752 l 338 440 l 540 0 l 386 0 l 251 311 l 201 228 l 201 0 z"},"R":{"x_min":0,"x_max":577,"ha":577,"o":"m 199 434 l 280 434 q 341 434 365 458 q 388 483 388 546 q 388 602 362 625 q 336 647 268 647 l 199 647 z m 64 0 l 64 752 l 315 752 q 429 752 479 706 q 529 660 529 555 q 529 482 502 440 q 475 397 423 390 q 522 364 527 222 q 527 215 527 212 l 531 112 q 533 70 542 44 q 550 19 569 0 l 403 0 q 397 19 394 45 q 391 70 390 117 l 388 196 l 388 216 q 388 281 360 306 q 333 330 247 330 l 199 330 l 199 0 z"},"T":{"x_min":0,"x_max":482,"ha":482,"o":"m 171 0 l 171 628 l 10 628 l 10 752 l 472 752 l 472 628 l 311 628 l 311 0 z"},"P":{"x_min":0,"x_max":545,"ha":545,"o":"m 199 423 l 258 423 q 323 423 350 448 q 376 474 376 536 q 376 599 352 623 q 328 647 260 647 l 199 647 z m 64 0 l 64 752 l 307 752 q 418 752 467 702 q 516 652 516 539 q 516 428 464 373 q 412 319 305 319 l 203 319 l 203 0 z"},"|":{"x_min":0,"x_max":500,"ha":500,"o":"m 200 764 l 301 764 l 301 -236 l 200 -236 z"},"t":{"x_min":0,"x_max":272,"ha":272,"o":"m 195 209 l 195 171 q 195 125 203 113 q 212 101 235 101 q 240 101 243 101 q 247 102 249 102 l 249 0 q 221 -3 205 -4 q 189 -5 179 -5 q 113 -5 89 21 q 64 47 64 129 l 64 468 l 13 468 l 13 565 l 64 565 l 64 719 l 195 719 l 195 565 l 249 565 l 249 468 l 195 468 z"},"M":{"x_min":0,"x_max":756,"ha":756,"o":"m 64 0 l 64 752 l 275 752 l 378 265 l 481 752 l 692 752 l 692 0 l 558 0 l 561 667 l 421 0 l 335 0 l 195 667 l 198 0 z"},"g":{"x_min":0,"x_max":486,"ha":486,"o":"m 429 45 q 429 -30 422 -64 q 415 -99 398 -123 q 376 -156 332 -173 q 289 -190 227 -190 q 143 -190 99 -157 q 54 -125 53 -62 l 183 -62 q 184 -79 197 -88 q 209 -97 231 -97 q 268 -97 283 -74 q 298 -52 298 9 l 298 48 q 281 16 255 0 q 228 -15 191 -15 q 107 -15 74 48 q 41 111 41 285 q 41 450 75 515 q 108 580 190 580 q 231 580 260 562 q 289 543 305 506 l 305 565 l 429 565 z m 234 472 q 199 472 187 438 q 174 404 174 273 q 174 158 187 127 q 200 95 234 95 q 273 95 287 132 q 302 169 302 319 q 302 413 287 442 q 273 472 234 472 z"},"j":{"x_min":0,"x_max":251,"ha":251,"o":"m 65 635 l 65 752 l 194 752 l 194 635 z m 18 -188 l 18 -81 q 49 -81 57 -72 q 66 -63 66 -21 l 66 565 l 194 565 l 194 -23 q 194 -134 167 -162 q 141 -191 61 -191 q 51 -191 41 -190 q 30 -189 18 -188 z"},"i":{"x_min":0,"x_max":242,"ha":242,"o":"m 56 635 l 56 752 l 186 752 l 186 635 z m 56 0 l 56 565 l 186 565 l 186 0 z"},"y":{"x_min":0,"x_max":444,"ha":444,"o":"m 86 -185 l 86 -87 q 90 -87 94 -88 q 99 -88 107 -88 q 135 -88 147 -79 q 160 -70 160 -50 q 160 -43 159 -35 q 157 -26 155 -18 l 10 565 l 148 565 l 226 157 l 302 565 l 434 565 l 287 -53 q 268 -134 235 -161 q 203 -189 132 -189 q 121 -189 110 -188 q 98 -187 86 -185 z"},"@":{"x_min":0,"x_max":1000,"ha":1000,"o":"m 570 133 q 543 92 508 73 q 473 53 425 53 q 348 53 307 95 q 267 137 267 219 q 267 336 335 415 q 403 494 503 494 q 542 494 571 478 q 600 462 618 430 l 644 478 l 731 478 l 659 186 q 658 181 657 175 q 656 169 656 166 q 656 149 667 140 q 679 132 702 132 q 721 132 742 142 q 763 151 781 169 q 823 208 844 260 q 866 312 866 375 q 866 492 776 568 q 685 643 542 643 q 473 643 414 626 q 354 610 306 577 q 223 521 178 438 q 134 354 134 255 q 134 105 235 15 q 336 -74 505 -74 q 584 -74 659 -50 q 735 -26 800 19 l 840 -38 q 765 -94 681 -123 q 598 -151 507 -151 q 413 -151 334 -127 q 256 -104 195 -57 q 119 2 82 79 q 44 156 44 254 q 44 335 70 409 q 95 483 145 544 q 217 632 319 678 q 420 723 545 723 q 627 723 700 701 q 772 679 826 638 q 892 587 925 521 q 957 456 957 373 q 957 292 925 224 q 893 156 833 108 q 799 81 759 66 q 718 52 675 52 q 623 52 597 72 q 571 93 570 133 z m 594 342 q 588 381 566 402 q 544 423 509 423 q 453 423 412 362 q 371 302 371 217 q 371 172 391 148 q 411 125 448 125 q 489 125 522 156 q 556 187 568 236 z"},".":{"x_min":0,"x_max":250,"ha":250,"o":"m 62 0 l 62 135 l 188 135 l 188 0 z"},"p":{"x_min":0,"x_max":486,"ha":486,"o":"m 184 306 q 184 169 198 132 q 213 95 252 95 q 287 95 299 127 q 312 159 312 284 q 312 406 299 439 q 287 472 252 472 q 213 472 198 442 q 184 412 184 306 z m 57 -190 l 57 565 l 181 565 l 181 506 q 197 543 226 562 q 255 580 296 580 q 378 580 411 515 q 445 450 445 285 q 445 114 412 50 q 380 -15 299 -15 q 259 -15 232 0 q 205 16 188 48 l 188 -190 z"},"X":{"x_min":0,"x_max":548,"ha":548,"o":"m 9 0 l 193 384 l 18 752 l 176 752 l 276 515 l 378 752 l 534 752 l 353 384 l 539 0 l 381 0 l 272 251 l 161 0 z"},"*":{"x_min":0,"x_max":500,"ha":500,"o":"m 250 492 l 179 394 l 106 447 l 176 545 l 62 582 l 90 669 l 205 631 l 205 752 l 295 752 l 295 631 l 410 669 l 438 582 l 324 545 l 394 447 l 321 394 z"},"Y":{"x_min":0,"x_max":550,"ha":550,"o":"m 206 0 l 206 319 l 9 752 l 164 752 l 278 469 l 390 752 l 541 752 l 347 319 l 347 0 z"},"c":{"x_min":0,"x_max":454,"ha":454,"o":"m 413 222 q 414 216 414 209 q 414 203 414 190 q 414 85 369 35 q 325 -15 231 -15 q 125 -15 82 48 q 40 111 40 282 q 40 453 82 517 q 125 580 231 580 q 324 580 369 534 q 413 487 413 390 l 413 370 l 288 370 l 288 383 q 288 434 275 457 q 262 479 232 479 q 202 479 188 457 q 175 435 175 384 l 175 189 q 175 131 188 108 q 200 85 231 85 q 264 85 277 111 q 290 138 290 210 l 290 222 z"},"!":{"x_min":0,"x_max":292,"ha":292,"o":"m 103 197 l 78 509 l 78 752 l 213 752 l 213 509 l 187 197 z m 81 0 l 81 136 l 209 136 l 209 0 z"},"/":{"x_min":0,"x_max":307,"ha":307,"o":"m 44 -93 l -30 -93 l 252 770 l 326 770 z"},"[":{"x_min":0,"x_max":328,"ha":328,"o":"m 78 -204 l 78 752 l 279 752 l 279 669 l 201 669 l 201 -121 l 279 -121 l 279 -204 z"},"6":{"x_min":0,"x_max":500,"ha":500,"o":"m 181 247 q 181 160 197 127 q 212 94 251 94 q 290 94 304 123 q 319 152 319 245 q 319 339 304 367 q 290 396 250 396 q 212 396 197 364 q 181 331 181 247 z m 181 457 q 197 482 224 495 q 250 508 287 508 q 374 508 415 450 q 457 392 457 270 q 457 115 409 51 q 361 -14 249 -14 q 188 -14 149 6 q 109 26 82 70 q 62 104 53 171 q 44 238 44 368 q 44 499 52 566 q 61 634 80 667 q 107 714 150 735 q 193 757 260 757 q 347 757 395 715 q 442 674 442 598 l 442 587 l 312 587 l 312 594 q 312 625 298 641 q 283 656 253 656 q 213 656 197 621 q 180 586 180 500 q 180 493 181 479 q 181 465 181 457 z"},"r":{"x_min":0,"x_max":338,"ha":338,"o":"m 58 0 l 58 565 l 183 565 l 183 473 q 210 530 240 555 q 271 579 315 580 l 315 421 q 308 422 300 422 q 293 423 282 423 q 240 423 216 398 q 191 373 191 331 l 191 0 z"},"2":{"x_min":0,"x_max":500,"ha":500,"o":"m 43 0 q 43 4 42 12 q 42 20 42 24 q 42 111 78 190 q 113 270 186 345 q 199 358 225 383 q 274 430 290 453 q 305 475 312 501 q 319 526 319 559 q 319 607 302 630 q 285 653 249 653 q 211 653 194 625 q 177 596 177 534 q 177 522 177 516 q 178 510 178 505 l 47 505 q 47 510 46 518 q 46 526 46 530 q 46 648 96 702 q 146 757 253 757 q 354 757 407 708 q 460 658 460 565 q 460 521 450 485 q 441 448 421 415 q 405 389 351 333 q 323 305 308 289 l 307 288 q 200 169 185 120 l 451 120 l 451 0 z"},"{":{"x_min":0,"x_max":500,"ha":500,"o":"m 431 721 l 431 619 q 427 619 419 620 q 411 620 408 620 q 359 620 342 601 q 324 583 324 522 l 324 405 q 324 333 302 302 q 280 272 223 259 q 280 246 302 216 q 324 186 324 114 l 324 -4 q 324 -64 341 -83 q 358 -101 408 -101 q 411 -101 419 -101 q 427 -100 431 -100 l 431 -202 q 424 -202 412 -203 q 400 -203 394 -203 q 345 -203 312 -197 q 280 -191 257 -179 q 229 -163 218 -135 q 206 -106 206 -37 l 206 86 q 206 153 181 181 q 156 209 97 209 q 94 209 87 208 q 81 208 77 208 l 77 310 q 81 310 87 310 q 94 309 97 309 q 156 309 181 337 q 206 366 206 433 l 206 555 q 206 625 218 653 q 229 682 257 698 q 280 710 312 716 q 345 722 394 722 q 400 722 412 722 q 424 721 431 721 z"},"9":{"x_min":0,"x_max":500,"ha":500,"o":"m 318 286 q 302 260 275 248 q 249 236 210 236 q 124 236 82 294 q 41 352 41 473 q 41 627 87 692 q 134 757 242 757 q 307 757 348 737 q 389 717 416 673 q 437 640 445 573 q 454 506 454 375 q 454 241 446 175 q 438 108 419 76 q 392 30 350 8 q 308 -14 247 -14 q 152 -14 104 27 q 56 69 56 151 l 56 156 l 187 156 l 187 148 q 187 119 202 104 q 218 88 246 88 q 286 88 302 122 q 318 155 318 247 z m 317 498 q 317 586 302 618 q 287 649 248 649 q 209 649 195 620 q 180 591 180 498 q 180 402 195 375 q 209 347 249 347 q 287 347 302 378 q 317 409 317 498 z"}," ":{"x_min":0,"x_max":250,"ha":250,"o":""},"I":{"x_min":0,"x_max":268,"ha":268,"o":"m 64 0 l 64 752 l 204 752 l 204 0 z"},"H":{"x_min":0,"x_max":598,"ha":598,"o":"m 64 0 l 64 752 l 203 752 l 203 457 l 395 457 l 395 752 l 534 752 l 534 0 l 395 0 l 395 341 l 203 341 l 203 0 z"},"4":{"x_min":0,"x_max":500,"ha":500,"o":"m 135 258 l 275 258 l 275 564 z m 272 0 l 272 149 l 34 149 l 34 269 l 257 743 l 400 743 l 400 261 l 463 261 l 463 149 l 400 149 l 400 0 z"},"~":{"x_min":0,"x_max":833,"ha":833,"o":"m 747 392 l 747 284 q 696 250 651 233 q 606 217 562 217 q 540 217 517 221 q 495 225 472 232 q 460 236 438 244 q 331 281 275 281 q 233 281 188 262 q 143 244 87 204 l 87 312 q 139 347 187 365 q 234 382 276 382 q 333 382 418 354 l 420 353 q 429 350 447 344 q 522 317 564 317 q 605 317 649 335 q 693 353 747 392 z"},"D":{"x_min":0,"x_max":588,"ha":588,"o":"m 201 111 l 263 111 q 311 111 330 118 q 349 125 360 141 q 379 170 388 221 q 396 272 396 385 q 396 494 386 544 q 376 594 353 619 q 341 632 322 637 q 302 642 261 642 l 201 642 z m 64 0 l 64 752 l 289 752 q 358 752 399 740 q 439 729 466 702 q 505 664 522 605 q 538 546 538 422 q 538 262 527 196 q 516 129 489 83 q 463 37 417 18 q 371 0 257 0 z"},"^":{"x_min":0,"x_max":1000,"ha":1000,"o":"m 438 713 l 561 713 l 796 439 l 681 439 l 500 620 l 318 439 l 203 439 z"},"0":{"x_min":0,"x_max":500,"ha":500,"o":"m 317 309 l 317 512 q 317 601 302 627 q 288 653 250 653 q 212 653 198 626 q 183 600 183 506 l 183 434 l 183 230 q 183 141 197 115 q 211 89 250 89 q 288 89 302 116 q 317 143 317 237 z m 43 377 q 43 511 52 576 q 60 641 80 674 q 107 718 147 737 q 187 757 250 757 q 313 757 353 737 q 393 718 420 674 q 440 641 448 576 q 457 511 457 377 q 457 240 449 175 q 441 109 422 76 q 395 29 354 7 q 313 -14 250 -14 q 187 -14 146 7 q 105 29 78 76 q 59 108 51 172 q 43 235 43 377 z"},"F":{"x_min":0,"x_max":489,"ha":489,"o":"m 64 0 l 64 752 l 457 752 l 457 629 l 204 629 l 204 451 l 443 451 l 443 331 l 204 331 l 204 0 z"},"`":{"x_min":0,"x_max":500,"ha":500,"o":"m 319 625 l 258 625 l 109 764 l 234 764 z"},"k":{"x_min":0,"x_max":432,"ha":432,"o":"m 57 0 l 57 752 l 184 752 l 184 359 l 301 565 l 438 565 l 297 349 l 440 0 l 298 0 l 216 226 l 184 176 l 184 0 z"},"u":{"x_min":0,"x_max":484,"ha":484,"o":"m 428 565 l 428 0 l 300 0 l 300 56 q 280 21 250 3 q 220 -15 181 -15 q 120 -15 87 20 q 55 55 55 121 l 55 565 l 181 565 l 181 196 q 181 140 194 118 q 207 97 237 97 q 270 97 283 121 q 297 144 297 204 l 297 565 z"},"]":{"x_min":0,"x_max":328,"ha":328,"o":"m 239 752 l 239 -204 l 38 -204 l 38 -121 l 117 -121 l 117 669 l 38 669 l 38 752 z"},"U":{"x_min":0,"x_max":597,"ha":597,"o":"m 64 752 l 204 752 l 204 245 q 204 158 225 127 q 247 96 301 96 q 354 96 375 127 q 396 159 396 247 l 396 752 l 534 752 l 534 233 q 534 157 526 122 q 517 87 497 61 q 467 21 417 2 q 367 -18 299 -18 q 170 -18 117 38 q 64 94 64 233 z"},"o":{"x_min":0,"x_max":478,"ha":478,"o":"m 174 288 l 174 275 q 174 144 187 114 q 200 85 238 85 q 277 85 291 113 q 304 140 304 256 l 304 279 l 304 311 q 304 422 290 450 q 276 479 239 479 q 202 479 188 453 q 174 427 174 327 z m 40 282 q 40 453 84 517 q 128 580 239 580 q 350 580 394 517 q 438 453 438 282 q 438 111 394 48 q 350 -15 239 -15 q 128 -15 84 48 q 40 111 40 282 z"},"N":{"x_min":0,"x_max":596,"ha":596,"o":"m 64 0 l 64 752 l 208 752 l 404 226 l 400 752 l 532 752 l 532 0 l 389 0 l 192 527 l 196 0 z"},"+":{"x_min":0,"x_max":833,"ha":833,"o":"m 367 596 l 466 596 l 466 347 l 709 347 l 709 250 l 466 250 l 466 0 l 367 0 l 367 250 l 124 250 l 124 347 l 367 347 z"},"G":{"x_min":0,"x_max":589,"ha":589,"o":"m 435 0 l 425 83 q 403 29 366 5 q 329 -18 263 -18 q 145 -18 97 71 q 49 161 49 399 q 49 510 60 577 q 72 645 96 681 q 125 726 174 748 q 222 769 294 769 q 415 769 472 712 q 530 655 530 534 l 530 515 l 399 515 l 399 523 q 399 590 374 625 q 349 659 299 659 q 238 659 215 612 q 193 565 193 364 q 193 205 214 151 q 236 97 292 97 q 348 97 371 135 q 395 173 395 264 l 395 290 l 298 290 l 298 410 l 530 410 l 530 0 z"},"q":{"x_min":0,"x_max":486,"ha":486,"o":"m 234 472 q 199 472 187 438 q 174 404 174 273 q 174 158 187 127 q 200 95 234 95 q 273 95 287 132 q 302 169 302 319 q 302 413 287 442 q 273 472 234 472 z m 298 48 q 282 16 254 0 q 227 -15 187 -15 q 106 -15 74 50 q 41 114 41 285 q 41 450 75 515 q 108 580 190 580 q 231 580 260 562 q 289 543 305 506 l 305 565 l 429 565 l 429 -190 l 298 -190 z"},"d":{"x_min":0,"x_max":486,"ha":486,"o":"m 174 291 q 174 160 187 126 q 199 93 234 93 q 273 93 287 123 q 302 153 302 246 q 302 396 287 433 q 273 470 234 470 q 200 470 187 438 q 174 406 174 291 z m 305 59 q 289 22 260 4 q 231 -15 190 -15 q 108 -15 75 50 q 41 115 41 280 q 41 451 74 515 q 106 580 187 580 q 227 580 254 564 q 282 549 298 517 l 298 752 l 429 752 l 429 0 l 305 0 z"},"1":{"x_min":0,"x_max":500,"ha":500,"o":"m 211 0 l 211 530 l 45 530 l 45 619 q 137 622 189 656 q 241 691 250 757 l 343 757 l 343 0 z"},"5":{"x_min":0,"x_max":500,"ha":500,"o":"m 39 241 l 169 241 l 169 221 q 169 155 188 121 q 207 88 245 88 q 284 88 302 127 q 319 167 319 256 q 319 337 299 374 q 280 410 237 410 q 208 410 189 393 q 170 376 168 349 l 46 349 l 66 743 l 422 743 l 422 623 l 170 623 l 162 472 q 183 494 208 504 q 232 514 265 514 q 360 514 408 452 q 456 390 456 265 q 456 119 405 52 q 354 -15 241 -15 q 138 -15 88 43 q 39 101 39 222 z"}}}
